<svg width="98" height="98" viewBox="0 0 98 98" fill="none" xmlns="http://www.w3.org/2000/svg">
<path d="M94.8108 49.2111C94.8108 74.6932 74.1535 95.3504 48.6714 95.3504C23.1894 95.3504 2.5321 74.6932 2.5321 49.2111C2.5321 23.7291 23.1894 3.07178 48.6714 3.07178C74.1535 3.07178 94.8108 23.7291 94.8108 49.2111Z" fill="#DDE6ED" stroke="#2F88FF" stroke-width="5"/>
<path d="M49 29L54.2533 32.832L60.7557 32.8197L62.7533 39.0077L68.0211 42.8197L66 49L68.0211 55.1803L62.7533 58.9923L60.7557 65.1803L54.2533 65.168L49 69L43.7467 65.168L37.2443 65.1803L35.2467 58.9923L29.9789 55.1803L32 49L29.9789 42.8197L35.2467 39.0077L37.2443 32.8197L43.7467 32.832L49 29Z" fill="#2F88FF" stroke="#2F88FF" stroke-width="4" stroke-linecap="round" stroke-linejoin="round"/>
<path d="M42 49L47 54L57 44" stroke="white" stroke-width="4" stroke-linecap="round" stroke-linejoin="round"/>
</svg>
